<svg xmlns="http://www.w3.org/2000/svg" viewBox="0 0 128 128">
  <defs>
    <linearGradient id="agents-plate" x1="18" y1="6" x2="112" y2="122" gradientUnits="userSpaceOnUse">
      <stop stop-color="#FFFBF4" offset="0"/>
      <stop stop-color="#F6E2C8" offset="1"/>
    </linearGradient>
    <linearGradient id="agents-flame" x1="64" y1="18" x2="64" y2="112" gradientUnits="userSpaceOnUse">
      <stop stop-color="#FFE27A" offset="0"/>
      <stop stop-color="#FEA41C" offset=".46"/>
      <stop stop-color="#E31B24" offset="1"/>
    </linearGradient>
    <linearGradient id="agents-gold" x1="36" y1="16" x2="100" y2="112" gradientUnits="userSpaceOnUse">
      <stop stop-color="#FFE9A0" offset="0"/>
      <stop stop-color="#F4831F" offset="1"/>
    </linearGradient>
    <linearGradient id="agents-ember" x1="28" y1="20" x2="104" y2="112" gradientUnits="userSpaceOnUse">
      <stop stop-color="#F67A28" offset="0"/>
      <stop stop-color="#C41422" offset="1"/>
    </linearGradient>
    <linearGradient id="agents-deep" x1="30" y1="24" x2="102" y2="114" gradientUnits="userSpaceOnUse">
      <stop stop-color="#E74C16" offset="0"/>
      <stop stop-color="#9E1020" offset="1"/>
    </linearGradient>
    <radialGradient id="agents-glow" cx="64" cy="40" r="70" gradientUnits="userSpaceOnUse">
      <stop stop-color="#FFFFFF" stop-opacity=".55" offset="0"/>
      <stop stop-color="#FFFFFF" stop-opacity="0" offset="1"/>
    </radialGradient>
  </defs>
  <rect width="128" height="128" rx="32" fill="url(#agents-plate)"/>
  <rect x="4" y="4" width="120" height="120" rx="28" fill="url(#agents-glow)"/>
  <path fill="url(#agents-ember)" d="M30 96c0-10 10-16 22-16h24c12 0 22 6 22 16v12H30V96Z"/>
  <rect x="36" y="32" width="56" height="54" rx="16" fill="url(#agents-flame)"/>
  <rect x="44" y="42" width="40" height="30" rx="10" fill="#FFF6E4"/>
  <circle cx="56" cy="56" r="5.5" fill="url(#agents-ember)"/>
  <circle cx="72" cy="56" r="5.5" fill="url(#agents-ember)"/>
  <rect x="61" y="18" width="6" height="16" rx="3" fill="url(#agents-deep)"/>
  <path fill="url(#agents-gold)" d="M64.0,5.0 C70.7,10.8 71.7,16.2 64.0,23.0 C56.3,16.2 57.3,10.8 64.0,5.0Z"/>
</svg>
