<svg xmlns="http://www.w3.org/2000/svg" viewBox="0 0 128 128">
  <defs>
    <linearGradient id="notes-plate" x1="18" y1="6" x2="112" y2="122" gradientUnits="userSpaceOnUse">
      <stop stop-color="#FFFBF4" offset="0"/>
      <stop stop-color="#F6E2C8" offset="1"/>
    </linearGradient>
    <linearGradient id="notes-flame" x1="64" y1="18" x2="64" y2="112" gradientUnits="userSpaceOnUse">
      <stop stop-color="#FFE27A" offset="0"/>
      <stop stop-color="#FEA41C" offset=".46"/>
      <stop stop-color="#E31B24" offset="1"/>
    </linearGradient>
    <linearGradient id="notes-gold" x1="36" y1="16" x2="100" y2="112" gradientUnits="userSpaceOnUse">
      <stop stop-color="#FFE9A0" offset="0"/>
      <stop stop-color="#F4831F" offset="1"/>
    </linearGradient>
    <linearGradient id="notes-ember" x1="28" y1="20" x2="104" y2="112" gradientUnits="userSpaceOnUse">
      <stop stop-color="#F67A28" offset="0"/>
      <stop stop-color="#C41422" offset="1"/>
    </linearGradient>
    <linearGradient id="notes-deep" x1="30" y1="24" x2="102" y2="114" gradientUnits="userSpaceOnUse">
      <stop stop-color="#E74C16" offset="0"/>
      <stop stop-color="#9E1020" offset="1"/>
    </linearGradient>
    <radialGradient id="notes-glow" cx="64" cy="40" r="70" gradientUnits="userSpaceOnUse">
      <stop stop-color="#FFFFFF" stop-opacity=".55" offset="0"/>
      <stop stop-color="#FFFFFF" stop-opacity="0" offset="1"/>
    </radialGradient>
  </defs>
  <rect width="128" height="128" rx="32" fill="url(#notes-plate)"/>
  <rect x="4" y="4" width="120" height="120" rx="28" fill="url(#notes-glow)"/>
  <path fill="url(#notes-flame)" d="M28 36h72c6 0 10 4 10 10v36c0 6-4 10-10 10H58l-16 16v-16H28c-6 0-10-4-10-10V46c0-6 4-10 10-10Z"/>
  <rect x="40" y="52" width="40" height="7" rx="3.5" fill="#FFF6E4"/>
  <rect x="40" y="66" width="26" height="7" rx="3.5" fill="#FFF6E4"/>
  <path fill="url(#notes-gold)" d="M96.0,21.0 C103.6,28.0 104.6,34.6 96.0,43.0 C87.4,34.6 88.4,28.0 96.0,21.0Z"/>
</svg>
