<svg xmlns="http://www.w3.org/2000/svg" viewBox="0 0 140 148">

  <linearGradient id="SVGID_1_" x1="5.25" x2="134.8" y1="142.8" y2="13.25" gradientTransform="matrix(1 0 0 -1 0 148)" gradientUnits="userSpaceOnUse">
    <stop stop-color="#E8ECF2" offset="0" />
    <stop stop-color="#DEE3EB" offset="1" />
  </linearGradient>
  <path class="cls-1" d="m110 147h-85.6c-10 0-18.8-5.6-24.4-14.5v-117.8c5.6-8.4 14.4-13.7 24.4-13.7h85.6c14.9 0 29 11.9 29 28v88c0 18.1-12.9 30-29 30z" />
  <path class="cls-2" d="m109.4 146.8h-84.8c-9.6 0-18.6-5.2-24.5-14.7v-117.2c5.9-8.8 14.9-14 24.5-14h84.8c14.5 0 28.7 11.5 28.7 28.1v88c0 18.3-12.7 29.8-28.7 29.8z" />
  <linearGradient id="SVGID_3_" x1="9.8" x2="125.1" y1="75.05" y2="75.05" gradientTransform="matrix(1 0 0 -1 0 148)" gradientUnits="userSpaceOnUse">
    <stop stop-color="#BB8E34" offset="0" />
    <stop stop-color="#EBCB7A" offset="1" />
  </linearGradient>
  <path class="cls-3" d="m124.2 73c0 29.9-24.4 57.1-56.2 57.1-27.9 0-57.3-20.2-57.3-57.1 0-26.9 20.2-55.4 57.2-55.6 26.6-0.1 56.3 19.3 56.3 55.6z" />
  <linearGradient id="SVGID_4_" x1="79.02" x2="45.48" y1="106.7" y2="42.94" gradientTransform="matrix(1 0 0 -1 0 148)" gradientUnits="userSpaceOnUse">
    <stop stop-color="#AFD3E1" offset="0" />
    <stop stop-color="#88ACD3" offset="1" />
  </linearGradient>
  <path d="m100.8 62.9c1.4-7.6-4.2-16.8-12.2-18-1.2-7.8-9.2-15.7-18.6-15.7-8.8 0-17.2 6.7-19.3 14.5-8.3-0.8-18.4 5.4-18.2 15.5l0.1 3.8c-6.3 3-11.6 9.7-11.6 18.8 0 11.5 8.6 21.4 21.3 21.4h7.3c4.1 4.1 9.3 7.7 17.3 7.7s13-3.3 17.3-7.9h6.4c12.7 0 22.3-8.1 22.3-21.5 0-7.6-4.6-15.4-12.1-18.6z" fill="url(#SVGID_4_)" />
  <linearGradient id="SVGID_5_" x1="67.55" x2="67.55" y1="115.6" y2="41.2" gradientTransform="matrix(1 0 0 -1 0 148)" gradientUnits="userSpaceOnUse">
    <stop stop-color="#B1DAE8" offset="0" />
    <stop stop-color="#EFF3F9" offset="1" />
  </linearGradient>
  <path class="cls-6" d="m96.6 65c2.6-6.8-1.8-15-11.3-17.4-0.4-8.8-8.5-15.2-16-15.2s-15.9 5.5-16.4 13.8c-7.7-2.3-18.4 3.7-16.1 13.8-7.1 2.9-14.9 9.5-12.1 23.2 1.4 6.9 7.5 15.9 18.4 15.9h8.1c3.7 3.7 7.7 7.7 15.7 7.7 6.5 0 11.8-2.3 15.9-6.8h7.1c10.9 0 19-8.1 19-18.9 0-6.9-4.8-13.8-12.3-16.1z" />
  <path class="cls-5" d="m96.5 65c2.9-8.1-3.4-16.5-11.2-16.2 0-7.3-6.5-16-16.1-16.1-8.8-0.1-15.6 7.2-15.6 14.4-7.5-2.7-18.3 3.2-17.2 12.5 0.1 1.4 0.3 2.6 0.7 5.4-6.5 2.2-12.3 8.4-12.2 16 0.1 9.8 7.7 17.9 18.2 18h8.1c4 3.7 8.4 7.3 15.6 7.4 5.6 0.1 11.1-2 15.9-6.4h7.2c9.1 0 18.7-6.1 18.8-18.5 0-6.8-4.8-14-12.2-16.5z" />
  <linearGradient id="SVGID_6_" x1="69.2" x2="69.2" y1="115.1" y2="44.27" gradientTransform="matrix(1 0 0 -1 0 148)" gradientUnits="userSpaceOnUse">
    <stop stop-color="#D0F3FB" offset="0" />
    <stop stop-color="#C6D3E5" offset="1" />
  </linearGradient>
  <path class="cls-7" d="m96.2 65.3c2.7-7.4-2.8-15.3-11-17 0-7.8-6.7-15.4-16-15.4-8.5 0-15.4 6.7-15.4 15.2-7.9-2.9-18.8 3.2-17.4 12.8l0.5 4.2c-5.9 2.1-11.9 7.7-11.8 15.9 0.1 9.4 7.5 17.5 17.7 17.5h8.6l0.5 0.1c3.9 3.7 8.1 6.8 15 6.9 6.2 0.1 11.4-2.2 15.5-6.7h8.2c8.9 0 17.8-6.4 18-17.3 0.1-6.6-4.8-14.1-12.4-16.2z" />
  <linearGradient id="SVGID_7_" x1="69.15" x2="69.15" y1="114.8" y2="53.4" gradientTransform="matrix(1 0 0 -1 0 148)" gradientUnits="userSpaceOnUse">
    <stop stop-color="#fff" offset="0" />
    <stop stop-color="#A0CAE2" offset="1" />
  </linearGradient>
  <path class="cls-8" d="m92.2 67.4c3.7-5.6 1-10.9-2.9-13.7-1.8-1.3-4.1-2.3-7-2.2 1.2-7.1-4.7-15.2-13-15.2-7.5 0-13.7 7.1-12.1 16.8-6.3-4.1-13.3-1.9-16.4 3.7-1.6 2.9-1.8 7.2 0.4 10.7-5.8 0.6-12.7 5.2-12.7 13.1s5.4 14 14.4 14h8.3c3.6 3.2 8.4 7.6 16 7.8 6.2-0.3 10.7-2.3 15.1-7.7h8.2c7.6 0 14.3-5.2 14.3-13.5 0-6.1-4.7-12.9-12.6-13.8z" />
  <linearGradient id="SVGID_8_" x1="69.01" x2="69.01" y1="69.9" y2="56.1" gradientTransform="matrix(1 0 0 -1 0 148)" gradientUnits="userSpaceOnUse">
    <stop stop-color="#A7D1E8" offset="0" />
    <stop stop-color="#A0CBE5" offset="1" />
  </linearGradient>
  <path class="cls-9" d="m89.1 78c-1.2 0-2.5 0-3.8 0.1-10.8 0.5-16 4-25.8 4-10.2 0-18.2-1.7-27.5-9.1-2 2.1-3.5 4.6-3.5 7.9 0 4 1.7 7.6 4.8 10.4 0.8 0.6 20.2 0.9 33.4 0.5 9-0.3 31.4 0.5 37.8-1.2 1.1-2.1 0.4-0.6 0.3-9-3.6-2.3-8.2-3.6-15.7-3.6z" />
  <linearGradient id="SVGID_9_" x1="25.3" x2="25.3" y1="125.4" y2="105.2" gradientTransform="matrix(1 0 0 -1 0 148)" gradientUnits="userSpaceOnUse">
    <stop stop-color="#F1F4F9" offset="0" />
    <stop stop-color="#C2D3F0" offset="1" />
  </linearGradient>
  <path d="m15.3 98c5.3-12.3 35-38.4 63.9-49.9 28.9-8.5 37.5-1.5 29.7 14.9-5.5 11.3-30.6 34.7-55.2 44.6-25.2 10.1-44.7 10.8-39.5-6.2" fill="none" stroke="url(#SVGID_40_)" stroke-miterlimit="10" stroke-width="1.5" />
  <linearGradient id="SVGID_41_" x1="56.8" x2="77.14" y1="99.51" y2="52.21" gradientTransform="matrix(1 0 0 -1 0 148)" gradientUnits="userSpaceOnUse">
    <stop stop-color="#FFDE30" offset="0" />
    <stop stop-color="#F86611" offset=".4405" />
    <stop stop-color="#BC1635" offset="1" />
  </linearGradient>
  <path d="m75.4 40.2c-1.9 1.1-8.6 6.9-10.8 14.2-0.7 2.1-1.3 4.4-2.1 8.5 0.2-1.9-2.3-5-3.4-5.3-0.6-0.1-1 0.5-0.6 1.1 2.3 5-1.7 9.3-3.2 10.5-0.7-2.1 0-3.8-0.4-4.6-0.2-0.2-0.6-0.5-1 0-5.5 5.8-9.5 11.4-9.6 17.5-0.1 3.9 1.3 7.3 4 10.4v-2.1c0-0.8 0.7-1.2 1.2-1.1h5.9c-3.5-5.4 0.4-10.4 4.9-15.1-0.8 4.7 2.5 5.9 4.4 5.5 4.2-0.6 10.5-4.5 11-10.8 0.6-6.3-5-11-1.2-23.5l1.8-4.4c0.3-0.4-0.3-1.3-0.9-0.8z" fill="url(#SVGID_41_)" />
  <linearGradient id="SVGID_42_" x1="54.75" x2="54.75" y1="82.29" y2="55.59" gradientTransform="matrix(1 0 0 -1 0 148)" gradientUnits="userSpaceOnUse">
    <stop stop-color="#F67016" offset="0" />
    <stop stop-color="#C3192C" offset="1" />
  </linearGradient>
  <path d="m53.1 67.1c-1.7 4-0.7 6.8 2.2 6.5 3-0.3 8.3-4.2 9.4-12 1.4-9.7 5.9-15.5 9.7-19.9-4.6 4-9.1 9.7-11.7 21.2-0.2-3-2.4-4.8-3.4-5.3-0.6-0.1-1.2 0.3-0.8 1 2.4 5.4-1.7 9.4-3.2 10.6-0.7-1.8 0.1-4.3-0.6-4.8-0.2-0.2-0.5-0.2-0.8 0.2-4.3 4.5-9.5 10.4-9.6 17.5-0.1 3.6 1.3 7.4 4 10.4-0.2-1.2-0.7-4.1-0.5-6.4 1.7-6.9 8.9-10.5 11.3-12.5-8.2 7.7-9.2 11.5-3.7 15.8h-5.9c-0.5 0-1.2 0.2-1.2 1.1v2c-0.7-2.1-1.2-5.8-0.9-10.4-1.3-5.4 2.2-11 5.7-15z" fill="url(#SVGID_42_)" />
  <linearGradient id="SVGID_43_" x1="65.45" x2="65.45" y1="66.3" y2="47.8" gradientTransform="matrix(1 0 0 -1 0 148)" gradientUnits="userSpaceOnUse">
    <stop stop-color="#FD5A0C" offset="0" />
    <stop stop-color="#AF1341" offset="1" />
  </linearGradient>
  <path d="m50.1 93.9v-2.3c0-0.3 0.2-0.7 0.5-0.7h4.8c0.3 0 0.7 0.2 0.7 0.6v6.2c-2-0.7-4.2-2.1-6-3.5m7.6-7.6v11.9c1.9 0.6 3.8 1.1 6.2 1.1v-13c0-0.4-0.2-0.7-0.6-0.7h-4.9c-0.4 0-0.7 0.3-0.7 0.7zm7.8-4.5v17.5c0.6 0 1.2 0 1.8-0.1 1.6-0.9 3.2-1.8 4.3-2.6v-14.8c0-0.5-0.2-0.7-0.6-0.7h-4.9c-0.3 0-0.6 0.2-0.6 0.7zm7.7-5.9v19.7c2.1-0.9 4.4-2.2 6.5-4v-15.7c0-0.5-0.2-0.7-0.6-0.7h-5.1c-0.5 0-0.8 0.2-0.8 0.7zm5.7-3.4c-0.5 0.5-0.3 1.2 0.4 1.1h1.2c0.4 0 0.8 0.3 0.8 0.8v18.7c2.1-1.8 3.7-4 5.1-6.8 3.3-8.7-0.3-18.2-2.3-21.9-0.5-0.7-1.4-0.7-1.5 0.4-0.4 3.8-1.4 5.8-3.7 7.7z" fill="url(#SVGID_43_)" />
  <linearGradient id="SVGID_44_" x1="70.4" x2="70.4" y1="51.6" y2="51.6" gradientTransform="matrix(1 0 0 -1 0 148)" gradientUnits="userSpaceOnUse">
    <stop stop-color="#FD5A0C" offset="0" />
    <stop stop-color="#AF1341" offset="1" />
  </linearGradient>
  <path d="m70.4 96.4" fill="url(#SVGID_44_)" />
  <linearGradient id="SVGID_45_" x1="69.6" x2="79.6" y1="51.1" y2="51.1" gradientTransform="matrix(1 0 0 -1 0 148)" gradientUnits="userSpaceOnUse">
    <stop stop-color="#B3103E" offset="0" />
    <stop stop-color="#9C0E38" offset="1" />
  </linearGradient>
  <path d="m73.3 97c2.2-0.6 4.3-1.6 6.3-2.6v-1.3c-1.8 1.3-4 2.5-6.3 3.5v1.4" fill="url(#SVGID_45_)" />
  <linearGradient id="SVGID_46_" x1="83.65" x2="83.65" y1="58.5" y2="54.6" gradientTransform="matrix(1 0 0 -1 0 148)" gradientUnits="userSpaceOnUse">
    <stop stop-color="#BF1B37" offset="0" />
    <stop stop-color="#A30E37" offset="1" />
  </linearGradient>
  <path d="m81.5 93.4c1.4-1.3 2.4-2.7 3.9-3.9l0.4-1.1-4.3 3.1v1.9z" fill="url(#SVGID_46_)" />
  <linearGradient id="SVGID_47_" x1="62.2" x2="70.19" y1="106.1" y2="70.76" gradientTransform="matrix(1 0 0 -1 0 148)" gradientUnits="userSpaceOnUse">
    <stop stop-color="#FFE324" offset="0" />
    <stop stop-color="#FA6711" offset="1" />
  </linearGradient>
  <path d="m62.1 77.8c2.6-1.6 9-6.2 7.5-15.8-2-9.9 1.8-16.1 4.8-20.3-4.1 3.9-8.3 9-9.7 19.2-0.8 6.1-4.2 10-5.7 12.7 0.6 0.4 2.1 4.3 3.1 4.2z" fill="url(#SVGID_47_)" />
  <linearGradient id="SVGID_48_" x1="10.3" x2="10.3" y1="82.7" y2="78.8" gradientTransform="matrix(1 0 0 -1 0 148)" gradientUnits="userSpaceOnUse">
    <stop stop-color="#fff" offset="0" />
    <stop stop-color="#fff" stop-opacity="0" offset="1" />
  </linearGradient>
  <path d="m14.3 69c-0.8 2.4-9.9 2.4-9.2-1.4 0.3-1.7 3.8-3.2 6.2-2.6 2.4 0.4 3.7 2.5 3 4z" enable-background="new" fill="url(#SVGID_48_)" opacity=".64" />
  <linearGradient id="SVGID_49_" x1="12.6" x2="12.6" y1="69.2" y2="66.04" gradientTransform="matrix(1 0 0 -1 0 148)" gradientUnits="userSpaceOnUse">
    <stop stop-color="#fff" offset="0" />
    <stop stop-color="#fff" stop-opacity="0" offset="1" />
  </linearGradient>
  <path d="m9.8 80.6c2.7 0.8 4.2-1.6 5.1-1.7 1 0 0.2 2.8-5.1 3v-1.3z" enable-background="new" fill="url(#SVGID_49_)" opacity=".48" />
  <linearGradient id="SVGID_50_" x1="25.38" x2="25.38" y1="42.4" y2="37.8" gradientTransform="matrix(1 0 0 -1 0 148)" gradientUnits="userSpaceOnUse">
    <stop stop-color="#fff" offset="0" />
    <stop stop-color="#fff" stop-opacity="0" offset="1" />
  </linearGradient>
  <path d="m29.6 108.5c-0.2 3.1-9.6 3.7-9.9 0.5-0.3-2.1 3.2-3.6 5.7-3.4 2.4 0 4.3 1.3 4.2 2.9z" enable-background="new" fill="url(#SVGID_50_)" opacity=".64" />
  <linearGradient id="SVGID_51_" x1="27.8" x2="27.8" y1="28.4" y2="25.1" gradientTransform="matrix(1 0 0 -1 0 148)" gradientUnits="userSpaceOnUse">
    <stop stop-color="#fff" offset="0" />
    <stop stop-color="#fff" stop-opacity="0" offset="1" />
  </linearGradient>
  <path d="m23.9 122.5c2.7 0.7 7.5-0.4 7.2-2.6-0.2-1-2.6 2.3-7.2 1.7v0.9z" enable-background="new" fill="url(#SVGID_51_)" opacity=".48" />
  <linearGradient id="SVGID_52_" x1="67.3" x2="67.3" y1="27.1" y2="21.6" gradientTransform="matrix(1 0 0 -1 0 148)" gradientUnits="userSpaceOnUse">
    <stop stop-color="#fff" offset="0" />
    <stop stop-color="#fff" stop-opacity="0" offset="1" />
  </linearGradient>
  <path d="m70.6 123.7c0 2.4-8.9 3.7-9.6 0.8-0.4-1.9 2.6-3.9 5.1-3.6 2.5 0.1 4.5 1.3 4.5 2.8z" enable-background="new" fill="url(#SVGID_52_)" opacity=".64" />
  <linearGradient id="SVGID_53_" x1="69.2" x2="69.2" y1="12.4" y2="9.4" gradientTransform="matrix(1 0 0 -1 0 148)" gradientUnits="userSpaceOnUse">
    <stop stop-color="#fff" offset="0" />
    <stop stop-color="#fff" stop-opacity="0" offset="1" />
  </linearGradient>
  <path d="m65.9 137.6c2.4 1 6.2-0.2 6.2-1.9 0-1.2-2.2 1.9-6.2 1.4v0.5z" enable-background="new" fill="url(#SVGID_53_)" opacity=".48" />
  <linearGradient id="SVGID_54_" x1="107.5" x2="107.5" y1="42.7" y2="37.1" gradientTransform="matrix(1 0 0 -1 0 148)" gradientUnits="userSpaceOnUse">
    <stop stop-color="#fff" offset="0" />
    <stop stop-color="#fff" stop-opacity="0" offset="1" />
  </linearGradient>
  <path d="m111.5 108.9c-0.4 3-10.1 3.6-9.9 0.2 0-2 3-3.9 5.6-3.7 2.7 0 4.5 1.8 4.3 3.5z" enable-background="new" fill="url(#SVGID_54_)" opacity=".64" />
  <linearGradient id="SVGID_55_" x1="110.1" x2="110.1" y1="28.6" y2="25.4" gradientTransform="matrix(1 0 0 -1 0 148)" gradientUnits="userSpaceOnUse">
    <stop stop-color="#fff" offset="0" />
    <stop stop-color="#fff" stop-opacity="0" offset="1" />
  </linearGradient>
  <path d="m106.2 122.4c2.7 1 7.7-0.5 7.2-2.4-0.1-1-2.8 2.4-7.2 1.9v0.5z" enable-background="new" fill="url(#SVGID_55_)" opacity=".48" />
  <linearGradient id="SVGID_56_" x1="107.4" x2="107.4" y1="124.1" y2="118.7" gradientTransform="matrix(1 0 0 -1 0 148)" gradientUnits="userSpaceOnUse">
    <stop stop-color="#fff" offset="0" />
    <stop stop-color="#fff" stop-opacity="0" offset="1" />
  </linearGradient>
  <path d="m112.4 28c-0.7 3-9.9 3.9-10.8 0.4-0.5-2 2.8-4.3 5.9-4.5 3.1 0 5.6 2.2 4.9 4.1z" enable-background="new" fill="url(#SVGID_56_)" opacity=".64" />
  <linearGradient id="SVGID_57_" x1="110.1" x2="110.1" y1="108.9" y2="106.1" gradientTransform="matrix(1 0 0 -1 0 148)" gradientUnits="userSpaceOnUse">
    <stop stop-color="#fff" offset="0" />
    <stop stop-color="#fff" stop-opacity="0" offset="1" />
  </linearGradient>
  <path d="m106.1 41.1c2.8 0.9 7-0.2 8-1.5 0.8-1-4.2 2-8 1v0.5z" enable-background="new" fill="url(#SVGID_57_)" opacity=".48" />
  <linearGradient id="SVGID_58_" x1="68" x2="68" y1="138.1" y2="132.4" gradientTransform="matrix(1 0 0 -1 0 148)" gradientUnits="userSpaceOnUse">
    <stop stop-color="#fff" offset="0" />
    <stop stop-color="#fff" stop-opacity="0" offset="1" />
  </linearGradient>
  <path d="m72.2 13.4c0.4 2.3-9.4 4-11 0.5-0.8-1.8 2.2-4 5.1-4 2.9-0.2 5.7 1.5 5.9 3.5z" enable-background="new" fill="url(#SVGID_58_)" opacity=".64" />
  <linearGradient id="SVGID_59_" x1="69.6" x2="69.6" y1="125.5" y2="122.2" gradientTransform="matrix(1 0 0 -1 0 148)" gradientUnits="userSpaceOnUse">
    <stop stop-color="#fff" offset="0" />
    <stop stop-color="#fff" stop-opacity="0" offset="1" />
  </linearGradient>
  <path d="m66.5 25.4c2.7 1 6.8-1.4 6.6-2.8-0.2-1-2.5 2.5-6.6 2.3v0.5z" enable-background="new" fill="url(#SVGID_59_)" opacity=".48" />
  <linearGradient id="SVGID_60_" x1="123.1" x2="123.1" y1="82.8" y2="78.9" gradientTransform="matrix(1 0 0 -1 0 148)" gradientUnits="userSpaceOnUse">
    <stop stop-color="#fff" offset="0" />
    <stop stop-color="#fff" stop-opacity="0" offset="1" />
  </linearGradient>
  <path d="m127.4 68.4c-0.7 2.5-9.8 2.5-9.4-1 0.1-1.8 3.6-3 5.9-2.7 2.5 0.4 3.8 2.3 3.5 3.7z" enable-background="new" fill="url(#SVGID_60_)" opacity=".64" />
  <linearGradient id="SVGID_61_" x1="125.4" x2="125.4" y1="69.2" y2="66.1" gradientTransform="matrix(1 0 0 -1 0 148)" gradientUnits="userSpaceOnUse">
    <stop stop-color="#fff" offset="0" />
    <stop stop-color="#fff" stop-opacity="0" offset="1" />
  </linearGradient>
  <path d="m122.6 80.7c2.8 0.4 4.5-2.3 5.5-1.8 1 0.7-1.2 3-5.5 3v-1.2z" enable-background="new" fill="url(#SVGID_61_)" opacity=".48" />
</svg>