<svg xmlns="http://www.w3.org/2000/svg" width="200" height="200" fill="none" viewBox="0 0 200 200">
<!-- SVG created with Arrow, by QuiverAI (https://quiver.ai) -->
  <path d="m165.8 72.4c-2.65-8.39-9.69-14.62-11.58-21.98-1.95-7.59-1.41-17.51-10.48-24.91-7.46-6.23-16.05-4.43-23.04-7.69-7.52-3.51-13.11-11.56-24.27-11.31-10.69-0.25-14.68 7.34-23.91 11.31-7.52 3.32-15.1 1.92-21.98 6.12-9.4 5.77-10.22 14.05-12.28 22.89-2.11 9.18-7.86 15.01-11.17 22.42-5.35 12.33 0.89 19.86 5.56 26.69 5.13 7.41 5.19 11.2 6.58 17.97 1.62 8.34 6.23 15.82 17.76 18.67 7.25 1.93 10.74 1.87 16.97 5 7.74 3.91 12.82 10.38 23.18 10.33 7.14-0.06 11.13-2.97 16.53-4.37 5.13 3.62 10.25 5.81 15.22 3.5 6.07-2.8 9.89-8.63 14.33-13.78 4.2-4.81 6.74-7.23 7.66-14.35 0.6-4.75 5.67-5.64 3.86-12.17-1.13-4.21 4.27-11.8 8.04-17.63s4.8-11.03 3.02-16.71z" fill="url(#paint0_linear_1214_36542)"/>
  <path d="m29.29 81.85c0-9.82 6.35-14.97 10.43-21.43 5.24-8.29 3.4-18.31 8.99-26.59 5.91-8.67 16.38-7.02 25.22-9.89 8.48-2.91 15.01-12.83 24.9-11.8-5.02-2.42-10.61-0.23-15.79 3.97-5.13 4.2-7.61 6.1-15.29 7.61-7.52 1.56-13.76 1.74-19.51 7.51-6.35 6.4-5.01 15.75-7.61 23.39-3.11 9.65-12.46 16.42-11.34 27.23z" fill="#F9C35A"/>
  <path d="m156.8 64.56c3.99 5.83 5.32 11.04 2.16 19.88-1.56 4.75-5.89 10.22-7.01 13.42 1.72-9.29 5.81-14.16 5.7-21.16-0.05-4.56-2.17-6.65-0.85-12.14z" fill="#AD2825"/>
  <path d="m95.12 23.72c-28.89 0-51.83 24.45-51.83 53.33s23.54 55.26 51.83 55.26c28.84 0 54.99-23.52 54.99-53.86 0-28.44-23.06-54.73-54.99-54.73z" fill="url(#paint1_linear_1214_36542)"/>
  <path d="m95.23 131.1c-26.55 0-48.22-22.36-48.22-48.96 0-26.61 20.05-52.21 48.22-52.21 26.78 0 51.88 20.79 51.88 48.82 0 25.7-20.79 52.35-51.88 52.35z" fill="url(#paint2_linear_1214_36542)"/>
  <path d="m95.4 125.3c-25.16 0-45.06-21.13-45.06-45.56 0-24.44 18.48-48.74 45.06-48.74 25.57 0 48.15 20.45 48.15 46.68 0 24.18-19.84 47.62-48.15 47.62z" fill="url(#paint3_linear_1214_36542)"/>
  <path d="m95.4 117.9c-22.69 0-39.95-19.19-39.95-40.45 0-21.25 16.67-41.65 39.95-41.65 23.07 0 42.13 18.81 42.13 41.7 0 21.58-17.21 40.4-42.13 40.4z" fill="url(#paint4_linear_1214_36542)" stroke="#9E1F26" stroke-miterlimit="10" stroke-width="1.608"/>
  <path d="m68.53 81.01 19.55 20.28 35.69-37.08v-2.31l-7.09-7.17-28.44 29.89-12.18-11.61-7.53 8z" fill="#9E1F26"/>
  <path d="m68.86 79.51 19.15 19.35 35.43-36.31-6.53-7.23c-0.65-0.7-1.42-0.53-1.97 0.06l-26.15 28.08c-0.55 0.65-1.15 0.65-1.75 0l-10.92-11.73-7.26 7.78z" fill="url(#paint5_linear_1214_36542)"/>
  <path d="m103.8 148.7 10.81-2.47 5.18 9.06c0.6 1.04 1.82 0.87 2.27-0.28l10.19-22.76 5.91 22.76c0.4 1.5 1.8 1.38 2.5-0.11l4.56-7.8 8.89 2.25c1.38 0.4 1.73-1.09 1.13-2.25l-7.85-18.82 0.45-3.26-17.66 5.09-16.43-2.42-10.74 19.41c-0.71 1.27-0.37 1.86 0.79 1.6z" fill="#891821"/>
  <path d="m107.2 145 7.64-1.94 4.96 7.85 9-20.85-7.85-3.07-5.64 1.71-8.11 16.3z" fill="url(#paint6_linear_1214_36542)" stroke="#891821" stroke-linecap="round" stroke-linejoin="round" stroke-miterlimit="10" stroke-width="2"/>
  <path d="m138.8 151.6 5.97-7.9 8.48 3.46-8.48-18.88-10.25 1.83-3.88 4.2 8.16 17.29z" fill="url(#paint7_linear_1214_36542)" stroke="#891821" stroke-linecap="round" stroke-linejoin="round" stroke-miterlimit="10" stroke-width="2"/>
  <path d="m152 105.1c-2.77-3.46-1.65-4.95-3.04-9.8-1.27-4.8-5.31-4.97-9.19-5.81-3.66-0.83-5.97-3.97-10.31-3.19-4.33 0.77-4.98 3.68-9.7 4.4-4.39 0.65-8.11 0.6-9.5 6.48-0.71 3.2-0.54 4.1-2.97 7.56-2.06 3.13-2.11 7.16 0.55 10.24 2.71 3.2 2.26 5.19 2.97 8.26 0.98 4.14 4.36 5.53 9.02 6.18 3.6 0.53 5.81 4.51 10.88 3.12 3.38-0.99 4.55-3.66 9.06-4.19 5.01-0.59 8.89-2.85 9.93-8.32 0.87-4.99 3.23-5.65 3.68-8.91 0.5-3.02-0.11-4.41-1.38-6.02z" fill="url(#paint8_linear_1214_36542)" stroke="#891821" stroke-linecap="round" stroke-linejoin="round" stroke-miterlimit="10" stroke-width="2"/>
  <path d="m129.7 124.5c-9.15 0-16.56-8.3-16.05-17.41 0.63-9.6 8.6-15.06 15.85-14.72 8.9 0.41 15.29 7.64 15.29 16.22 0 8.4-6.29 15.91-15.09 15.91z" fill="url(#paint9_linear_1214_36542)" stroke="#DF6E39" stroke-linecap="round" stroke-linejoin="round" stroke-miterlimit="10" stroke-width="2"/>
  <path d="m120.1 109.2 7.04 7.18 11.38-12.44-1.62-1.77-9.83 9.67-4.28-4.37-2.69 1.73z" fill="#AD2825"/>
  <path d="m6.21 128.3 9.1-4.15 3.11 6.74-1.19 0.56-2.6-5.65-3.41 1.57 2.36 5.29-1.19 0.56-2.36-5.29-1.89 0.87-1.07 0.5 2.79 6.23-1.19 0.56-2.46-7.79z" fill="#67261F"/>
  <path d="m16.74 133.4 0.81 1.46-4.84 5.1 6.9-0.45 0.81 1.46-8.72 0.15-1.27-1.89 6.31-5.83z" fill="#67261F"/>
  <path d="m16.91 144.5c2.15-1.55 4.75-2.05 6.43 0.55 1.45 2.41 0.11 4.19-2.1 5.55l-0.55 0.33-2.98-4.75c-1.4 1.42-1.4 2.69-0.46 4.07 0.61 0.9 1.37 1.45 2.18 1.79l-0.81 0.95c-0.99-0.44-1.89-1.2-2.59-2.34-1.62-2.66-0.67-4.75 0.88-6.15zm3.9 4.7c1.49-1 2.15-2.22 1.2-3.71-1.09-1.72-2.64-1.28-3.63-0.52l2.43 4.23z" fill="#67261F"/>
  <path d="m25.33 149.3 0.95 1.19-0.89 0.84c1.22-0.39 2.36-0.28 3.25 0.91l-1 1.05c-1.09-1.55-2.69-1.66-3.92-0.66l-3.65 3.03-1.05-1.33 6.31-5.03z" fill="#67261F"/>
  <path d="m22.03 159.1 1.14-0.6c0.28 0.76 0.61 1.37 1.16 1.81 0.6 0.45 1.42 0.39 2.51-0.15l4.1-5.04-0.82-1.72 0.99-0.71 1.4 2.76-4.39 5.47 6.36-2.98 1.1 1.15-7.97 3.47c-1.72 0.82-3.5 0.7-4.78-1.44-0.33-0.61-0.62-1.37-0.8-2.02z" fill="#67261F"/>
  <path d="m35.49 166.7 2.99-3.81-1.33-1.05 0.71-1.15 1.55 1.09 1.33-1.89 1.05 0.71-1.45 2.09 2.37 1.78-0.77 1.1-2.31-1.78-2.82 3.92c-0.65 0.89-0.38 1.6 0.51 2.15 0.45 0.28 1 0.45 1.39 0.56l-0.77 1.15c-0.6-0.17-1.31-0.44-1.91-0.89-1.5-1.14-1.67-2.59-0.54-3.98z" fill="#67261F"/>
  <path d="m43.24 166.1 1.33 0.87-0.66 1.04c1.11-0.65 2.25-0.76 3.53 0.11l-0.77 1.28c-1.55-1.13-3.1-0.8-4.05 0.53l-2.82 3.97-1.44-1 4.88-6.8z" fill="#67261F"/>
  <path d="m44.42 173.6c1.15-2.15 3.3-1.98 5.35-0.84 0.71 0.39 1.37 0.95 1.97 1.49l0.39-0.76c0.17-1.05-0.37-1.94-1.65-2.65-0.89-0.55-1.94-0.77-2.83-0.77l0.44-1.33c1.05 0 2.2 0.33 3.3 0.99 2.15 1.22 2.92 2.94 1.78 5.14l-2.71 4.98-1.39-0.82 0.44-0.94c-1.19 0.6-2.38 0.66-3.57-0.06-1.61-0.94-2.32-2.54-1.52-4.43zm2.31 3.46c1.09 0.6 2.48 0.16 3.19-0.6l0.87-1.72c-0.45-0.44-1.05-0.94-1.7-1.33-1.45-0.82-2.69-0.65-3.34 0.58-0.6 1.1-0.22 2.3 0.98 3.07z" fill="#67261F"/>
  <path d="m54.74 172.9 1.5 0.71-0.6 1.33c1.27-0.82 2.67-0.99 4.05-0.28 1.94 0.99 2.43 2.88 1.34 5.03l-2.21 4.51-1.5-0.82 2.21-4.39c0.82-1.72 0.27-2.94-1.01-3.65-1.45-0.77-2.9 0-3.66 1.5l-2.21 4.28-1.5-0.82 3.59-7.4z" fill="#67261F"/>
  <path d="m59.81 184.8 0.55-1.28c0.82 0.95 1.96 1.72 3.29 2.21 1.27 0.5 2.09 0 2.37-0.76 0.33-0.89-0.49-1.5-1.68-2.21-1.33-0.89-2.33-1.89-1.73-3.49 0.6-1.56 2.27-1.89 4.1-1.18 0.94 0.4 1.94 1.11 2.65 1.82l-0.71 1.1c-0.76-0.84-1.71-1.66-2.6-2.02-1.15-0.44-1.97-0.11-2.24 0.6-0.34 0.88 0.55 1.54 1.74 2.3 1.39 0.95 2.34 1.85 1.74 3.4-0.6 1.5-2.16 2.16-4.26 1.26-1.19-0.44-2.38-1.2-3.22-1.75z" fill="#67261F"/>
  <path d="m69.11 184.9c0.77-2.32 2.92-2.54 5.23-1.78 0.77 0.28 1.54 0.72 2.25 1.17l0.22-0.83c0-1.09-0.71-1.92-2.1-2.36-1-0.39-2.05-0.44-2.94-0.33l0.22-1.4c1.05-0.11 2.24 0 3.48 0.45 2.37 0.82 3.46 2.43 2.7 4.8l-1.61 5.38-1.61-0.55 0.28-0.99c-1.1 0.76-2.28 1.04-3.61 0.54-1.78-0.6-2.87-2.04-2.51-4.1zm3.04 3.02c1.24 0.45 2.52-0.26 3.23-1.21l0.6-1.89c-0.55-0.39-1.26-0.78-2.02-1.06-1.61-0.6-2.8-0.21-3.24 1.18-0.39 1.23 0.16 2.38 1.43 2.98z" fill="#67261F"/>
  <path d="m77.79 187.3c0.6-2.91 2.75-4.13 5.36-3.59 1.27 0.28 2.27 0.99 2.87 1.75l-0.65 1.14c-0.6-0.9-1.49-1.61-2.54-1.78-1.88-0.39-3.28 0.8-3.66 2.74-0.45 2.04 0.44 3.65 2.38 4.04 1.19 0.27 2.34-0.06 3.21-0.72l0.33 1.33c-1.14 0.82-2.53 1.05-3.98 0.66-2.6-0.6-3.93-2.92-3.32-5.57z" fill="#67261F"/>
  <path d="m86.74 190.4 0.6-4.8-1.67-0.22 0.06-1.33 1.89 0.22 0.28-2.31 1.33 0.11-0.28 2.47 2.93 0.39-0.17 1.33-2.93-0.39-0.6 4.8c-0.17 1.1 0.43 1.6 1.48 1.65 0.55 0.05 1.1-0.06 1.54-0.17l-0.06 1.39c-0.6 0.17-1.37 0.28-2.19 0.17-1.73-0.28-2.55-1.52-2.21-3.31z" fill="#67261F"/>
  <path d="m93.69 181.6 1.55 0.11-0.11 1.78-1.55-0.11 0.11-1.78zm0 3.6 1.66 0.11-0.6 8.28-1.55-0.1 0.49-8.29z" fill="#67261F"/>
  <path d="m96.41 189.7c-0.06-2.8 1.61-4.63 4.38-4.63 2.82 0 4.49 1.83 4.43 4.54 0 2.75-1.67 4.53-4.44 4.53-2.77 0.06-4.43-1.78-4.37-4.44zm7.2-0.11c0.05-2.04-1.13-3.32-2.86-3.32-1.78 0-2.87 1.33-2.87 3.32s1.09 3.32 2.87 3.32 2.86-1.39 2.86-3.32z" fill="#67261F"/>
  <path d="m107.1 184.8 1.67-0.17 0.11 1.45c0.76-1.33 1.99-2.09 3.54-2.09 2.15-0.17 3.6 1.22 3.77 3.64l-0.17 5.22-1.67 0.11 0.17-4.98c-0.11-1.88-1.16-2.78-2.66-2.66-1.61 0.11-2.5 1.49-2.5 3.21l-0.17 4.85-1.67 0.11-0.42-8.69z" fill="#67261F"/>
  <path d="m120.1 190 0.49-1.33c0.76 0.45 1.76 0.84 2.76 0.56 1.55-0.45 2.15-1.54 1.6-3.53l-2.05-5.99-3.82 1.19-0.44-1.33 5.8-1.83 2.61 8.29c0.89 2.97-0.5 4.3-2.81 5.01-1.56 0.55-3-0.06-4.14-1.04z" fill="#67261F"/>
  <path d="m126.6 177.1 1.55-0.82 5.97 8-0.94-9.59 1.61-0.84 5.91 8.34-0.76-10.19 1.5-0.83 0.65 12.43-1.78 1-6.02-8.11 0.82 9.98-1.78 0.94-6.73-10.31z" fill="#67261F"/>
  <path d="m144.8 181-0.28-1.5c1.34 0.28 3 0.11 4.39-0.89s1.62-2.18 0.91-3.17c-0.82-1.18-2.21-0.68-3.94-0.14-1.88 0.66-3.6 0.99-4.94-1-1.14-1.78-0.54-3.72 1.67-5.22 1.18-0.82 2.68-1.37 3.86-1.48l0.5 1.39c-1.22 0-2.72 0.5-3.77 1.32-1.39 0.99-1.72 2.17-1.01 3.22 0.82 1.18 2.15 0.68 3.76 0.08 1.94-0.77 3.72-1.21 5.05 0.78 1.28 1.94 0.57 4.04-1.69 5.54-1.5 0.89-3.17 1.28-4.51 1.07z" fill="#67261F"/>
  <path d="m152.5 167.5 1.23-1.2 6.25 4.22-2.26-6.89 1.23-1.19 2.48 8.76-1.61 1.45-7.32-5.15z" fill="#67261F"/>
  <path d="m162.3 165.1c-2.09-1.99-3.22-4.59-0.96-6.8 2.1-2.15 4.31-1.05 6.31 0.94l0.49 0.5-4.23 4.23c1.72 1.33 3.05 1.16 4.33-0.17 0.82-0.82 1.32-1.76 1.54-2.71l1.14 0.66c-0.28 1.14-0.88 2.24-1.87 3.33-2.31 2.32-4.63 1.61-6.75 0.02zm4-5.31c-1.39-1.33-2.78-1.88-4.11-0.49-1.45 1.5-0.63 2.95 0.37 3.99l3.74-3.5z" fill="#67261F"/>
  <path d="m166 154.9 0.99-1.28 1.09 0.82c-0.5-1.19-0.5-2.43 0.55-3.71l1.28 0.89c-1.39 1.61-1.17 3.22 0.11 4.4l3.88 3.4-1.18 1.39-6.72-5.91z" fill="#67261F"/>
  <path d="m167.9 148.9 1-1.39 1.44 1.09-0.99 1.39-1.45-1.09zm2.77 2.15 1-1.45 6.67 5.15-1.05 1.4-6.62-5.1z" fill="#67261F"/>
  <path d="m174.9 147.1-1.09-0.82 0.82-1.24 1.23 0.89 0.6-0.83c1.28-1.89 3-2.17 4.67-1.02l2.88 2.04-0.95 1.45-2.71-1.89c-1.09-0.77-2.08-0.54-2.9 0.69l-0.5 0.71 5.59 3.75-1 1.5-5.64-3.97-1.23 1.88-1.15-0.76 1.38-2.38zm-2.55-3.98 0.99-1.5 1.5 1.05-1.04 1.5-1.45-1.05z" fill="#67261F"/>
  <path d="m182.7 142.6c-2.48-1.39-4.15-3.62-2.59-6.43 1.5-2.65 3.92-2.32 6.4-0.87l0.6 0.33-2.93 5.16c1.99 0.89 3.32 0.45 4.27-1.21 0.61-1.04 0.89-2.09 0.89-3.09l1.28 0.33c0 1.16-0.34 2.45-1.1 3.73-1.73 2.91-4.21 3.08-6.82 2.05zm2.77-6.28c-1.67-0.89-3.17-1.06-4.17 0.6-1.09 1.89 0.09 3.04 1.32 3.75l2.85-4.35z" fill="#67261F"/>
  <path d="m186.2 134.6c-2.42-1.04-3.71-3.46-2.66-5.97 0.6-1.45 1.79-2.21 3.12-2.44l-4.33-1.88 0.71-1.72 9.1 4.42c1.78 0.89 2.01 3.1 1.01 5.31-1.33 2.91-4.1 3.46-6.95 2.28zm5.18-6.3-3.16-1.44c-1.55 0.17-2.7 0.88-3.3 2.21-0.82 1.94 0.23 3.66 2.11 4.48 2.05 0.88 3.94 0.33 4.81-1.77 0.71-1.49 0.6-2.88-0.46-3.48z" fill="#67261F"/>
  <path d="m192.3 125 0.94-1.72 1.56 0.89-0.95 1.72-1.55-0.89z" fill="#67261F"/>
  <defs>
    <linearGradient id="paint0_linear_1214_36542" x1="69.2" x2="128.3" y1="7.143" y2="148.1" gradientUnits="userSpaceOnUse">
      <stop stop-color="#F99B1C" offset="0"/>
      <stop stop-color="#F1561A" offset=".4844"/>
      <stop stop-color="#AF2826" offset="1"/>
    </linearGradient>
    <linearGradient id="paint1_linear_1214_36542" x1="79.23" x2="110.8" y1="27.35" y2="128.7" gradientUnits="userSpaceOnUse">
      <stop stop-color="#911423" offset="0"/>
      <stop stop-color="#B12925" offset="1"/>
    </linearGradient>
    <linearGradient id="paint2_linear_1214_36542" x1="64.01" x2="116.7" y1="32.01" y2="128.6" gradientUnits="userSpaceOnUse">
      <stop stop-color="#F99B1C" offset="0"/>
      <stop stop-color="#B72926" offset="1"/>
    </linearGradient>
    <linearGradient id="paint3_linear_1214_36542" x1="72.42" x2="107" y1="33.19" y2="121.7" gradientUnits="userSpaceOnUse">
      <stop stop-color="#D54116" offset="0"/>
      <stop stop-color="#B12925" offset="1"/>
    </linearGradient>
    <linearGradient id="paint4_linear_1214_36542" x1="77.27" x2="103" y1="37.3" y2="114.9" gradientUnits="userSpaceOnUse">
      <stop stop-color="#D54116" offset="0"/>
      <stop stop-color="#B12925" offset="1"/>
    </linearGradient>
    <linearGradient id="paint5_linear_1214_36542" x1="96.14" x2="96.14" y1="54.73" y2="98.86" gradientUnits="userSpaceOnUse">
      <stop stop-color="#FEE695" offset="0"/>
      <stop stop-color="#F69557" offset="1"/>
    </linearGradient>
    <linearGradient id="paint6_linear_1214_36542" x1="116.7" x2="116.7" y1="127" y2="151.6" gradientUnits="userSpaceOnUse">
      <stop stop-color="#F8311A" offset="0"/>
      <stop stop-color="#F8931A" offset=".4844"/>
      <stop stop-color="#F7B918" offset="1"/>
    </linearGradient>
    <linearGradient id="paint7_linear_1214_36542" x1="142.1" x2="142.1" y1="128.3" y2="151.6" gradientUnits="userSpaceOnUse">
      <stop stop-color="#D9241C" offset="0"/>
      <stop stop-color="#F85813" offset=".4844"/>
      <stop stop-color="#F77718" offset="1"/>
    </linearGradient>
    <linearGradient id="paint8_linear_1214_36542" x1="129.4" x2="129.4" y1="86.09" y2="132.9" gradientUnits="userSpaceOnUse">
      <stop stop-color="#FEE695" offset="0"/>
      <stop stop-color="#F69557" offset="1"/>
    </linearGradient>
    <linearGradient id="paint9_linear_1214_36542" x1="129.3" x2="129.3" y1="92.37" y2="124.5" gradientUnits="userSpaceOnUse">
      <stop stop-color="#FEE695" offset="0"/>
      <stop stop-color="#F69557" offset="1"/>
    </linearGradient>
  </defs>
</svg>