<svg xmlns="http://www.w3.org/2000/svg" viewBox="0 0 100 99">
<!-- SVG created with Arrow, by QuiverAI (https://quiver.ai) -->
  <style type="text/css">.cls-0 {fill:#FFFFFF;}
.cls-1 {fill:url(#SVGID_1_);}
.cls-2 {fill:url(#XMLID_74_);}
.cls-3 {fill:url(#XMLID_85_);}</style>
  <path d="m99.9 0h-99.9v99h99.9v-99z" fill="#E6E7E8"/>
  <path class="cls-0" d="m92.2 22.5c0-10.5-7.1-17.6-17.5-17.6h-52.2c-10.1 0-17.5 7-17.5 17.1v51.5c0 10.5 6.9 17.7 17.5 17.7h51.8c10.7 0 17.9-6.9 17.9-17.5v-51.2z"/>
  <linearGradient id="SVGID_1_" x1="70.96" x2="26.2" y1="73.51" y2="25.95" gradientTransform="matrix(1 0 0 -1 0 99)" gradientUnits="userSpaceOnUse">
    <stop stop-color="#F5A52B" offset="0"/>
    <stop stop-color="#E53234" offset="1"/>
  </linearGradient>
  <path class="cls-1" d="m64.4 68.6c-3.8 3.2-9.2 6.3-17.1 6.4-12.7 0-25.9-9.6-25.9-26.1 0-7.9 3.5-14.5 8.1-18.9-1.8 0.6-5.6 2.5-7.5 3.6-3.5 4.8-5.9 10.8-5.9 16.4 0.5 17.3 13.3 30.2 31.3 30.2 8.7-0.1 18.3-3.2 24.5-12-2.1 0.5-5.4 0.6-7.5 0.4z"/>
  <radialGradient id="XMLID_74_" cx="-75.99" cy="278.3" r="13.37" gradientTransform="matrix(2 0 0 -2 196.7 612)" gradientUnits="userSpaceOnUse">
    <stop stop-color="#FCDA4C" offset="0"/>
    <stop stop-color="#EBAA3D" stop-opacity="0" offset=".7394"/>
  </radialGradient>
  <circle class="cls-2" cx="53.5" cy="56.1" r="26.8"/>
  <linearGradient id="XMLID_85_" x1="44.55" x2="22.45" y1="81.87" y2="35.18" gradientTransform="matrix(1 0 0 -1 0 99)" gradientUnits="userSpaceOnUse">
    <stop stop-color="#FAB839" offset="0"/>
    <stop stop-color="#E53333" offset="1"/>
  </linearGradient>
  <path class="cls-3" d="m44.1 19.7c-4.4-1.5-8.2-3.3-10.9-3.2-1.6 0.1-2.8 0.8-2.9 1.3s2.5 1.3 2.3 2.5c-1.3 1.5-6.8 1.4-9.8 3.6-1.8 1.3-2.8 3.2-2.9 4.7 2.2-2 3.8-2.5 5.3-2.3-0.6 1.3-2.5 2.8-4.1 5.5-2.9 4.5-5 9.8-5 16.9 0.1 11.1 5.9 18.6 5.9 18.6l0.8-11.4s-1.5-3.9-1.3-8.2c0.3-6.6 3.1-12.6 8-17.5 1.5-1.3 5.9-3.1 7.3-3.4 0.1 1.9-1.8 3.3-0.1 4.1 0.9 0.6 2.6 0.5 3.5-1l4.7-8.5c0.5-0.8-0.1-1.6-0.8-1.7z"/>
  <linearGradient id="SVGID_00000143597091378060474440000012910202482736232025_" x1="46.9" x2="78.8" y1="81.45" y2="51.46" gradientTransform="matrix(1 0 0 -1 0 99)" gradientUnits="userSpaceOnUse">
    d!',
    <stop stop-color="#F2912A" offset="0"/>
    <stop stop-color="#F5A52C" offset="1"/>
  </linearGradient>
  <path d="m46.9 17.4c0.7 0.7 2.4 2.2 2.4 2.5 0.1 0.3-1.5 3-1.5 3 11.5 0 22 8 25.1 20.3 2.1 1.1 4.2 2.2 5.8 4.7 0.1-11.9-9.6-30.3-29.2-30.4-0.5-0.1-2.1-0.1-2.6-0.1z" clip-rule="evenodd" fill="url(#SVGID_00000143597091378060474440000012910202482736232025_)" fill-rule="evenodd"/>
  <linearGradient id="SVGID_00000049210267650612290590000014674373504387695270_" x1="35.3" x2="73.1" y1="56.47" y2="34.79" gradientTransform="matrix(1 0 0 -1 0 99)" gradientUnits="userSpaceOnUse">
    <stop stop-color="#EF6931" offset="0"/>
    <stop stop-color="#ED7630" offset=".4274"/>
    <stop stop-color="#E52A30" offset="1"/>
  </linearGradient>
  <path d="m68.4 46.2h-0.7c-0.8-6.9-6.2-13.1-14.1-13.1-4.9 0-9.5 2.9-11.7 6.8-3.9-0.3-8 2.2-8.2 7.2-3.2 1.3-5.7 4.7-5.6 8.9 0.3 5 3.8 8.9 9.1 8.9h31.6c5.1 0.2 9.1-3.6 9.1-9.2-0.1-5-4.3-9.5-9.5-9.5z" fill="url(#SVGID_00000049210267650612290590000014674373504387695270_)"/>
  <radialGradient id="SVGID_00000008127230754725115540000007708723992982611205_" cx="-75.23" cy="279.1" r="12.12" gradientTransform="matrix(2 0 0 -2 196.7 612)" gradientUnits="userSpaceOnUse">
    <stop stop-color="#FCDA4C" offset="0"/>
    <stop stop-color="#EBAA3D" stop-opacity="0" offset="1"/>
  </radialGradient>
  <path d="m41.8 40.2c-0.9 1.6-1.7 3.7-2.1 6.1-1.4-0.3-3.7-0.1-5.9 0.7 0.1-4 3.4-7.2 8-6.8z" fill="url(#SVGID_00000008127230754725115540000007708723992982611205_)"/>
  <radialGradient id="SVGID_00000039824992299367671190000016557968983033032758_" cx="-75.41" cy="291.4" r="10.56" fx="-74.72" fy="284" gradientTransform="matrix(2 0 0 -1.807 196.7 545.2)" gradientUnits="userSpaceOnUse">
    <stop stop-color="#FCDA4C" offset="0"/>
    <stop stop-color="#FAAF43" stop-opacity="0" offset="1"/>
  </radialGradient>
  <path d="m53.6 33.1c-4.8 0-9.3 2.7-11.8 6.8-0.3 0.1-7.2-0.6-8.2 7.2l6.4-0.9c0.9-7.2 6.4-13.1 13.6-13.1z" clip-rule="evenodd" fill="url(#SVGID_00000039824992299367671190000016557968983033032758_)" fill-rule="evenodd"/>
</svg>