<svg xmlns="http://www.w3.org/2000/svg" viewBox="0 0 128 128">
  <defs>
    <linearGradient id="engine-plate" x1="18" y1="6" x2="112" y2="122" gradientUnits="userSpaceOnUse">
      <stop stop-color="#FFFBF4" offset="0"/>
      <stop stop-color="#F6E2C8" offset="1"/>
    </linearGradient>
    <linearGradient id="engine-flame" x1="64" y1="18" x2="64" y2="112" gradientUnits="userSpaceOnUse">
      <stop stop-color="#FFE27A" offset="0"/>
      <stop stop-color="#FEA41C" offset=".46"/>
      <stop stop-color="#E31B24" offset="1"/>
    </linearGradient>
    <linearGradient id="engine-gold" x1="36" y1="16" x2="100" y2="112" gradientUnits="userSpaceOnUse">
      <stop stop-color="#FFE9A0" offset="0"/>
      <stop stop-color="#F4831F" offset="1"/>
    </linearGradient>
    <linearGradient id="engine-ember" x1="28" y1="20" x2="104" y2="112" gradientUnits="userSpaceOnUse">
      <stop stop-color="#F67A28" offset="0"/>
      <stop stop-color="#C41422" offset="1"/>
    </linearGradient>
    <linearGradient id="engine-deep" x1="30" y1="24" x2="102" y2="114" gradientUnits="userSpaceOnUse">
      <stop stop-color="#E74C16" offset="0"/>
      <stop stop-color="#9E1020" offset="1"/>
    </linearGradient>
    <radialGradient id="engine-glow" cx="64" cy="40" r="70" gradientUnits="userSpaceOnUse">
      <stop stop-color="#FFFFFF" stop-opacity=".55" offset="0"/>
      <stop stop-color="#FFFFFF" stop-opacity="0" offset="1"/>
    </radialGradient>
  </defs>
  <rect width="128" height="128" rx="32" fill="url(#engine-plate)"/>
  <rect x="4" y="4" width="120" height="120" rx="28" fill="url(#engine-glow)"/>
  <rect x="32" y="26" width="24" height="36" rx="8" fill="url(#engine-ember)"/>
  <rect x="60" y="20" width="24" height="42" rx="8" fill="url(#engine-ember)"/>
  <rect x="18" y="54" width="82" height="50" rx="16" fill="url(#engine-flame)"/>
  <rect x="30" y="68" width="16" height="14" rx="4" fill="#FFF6E4"/>
  <rect x="52" y="68" width="16" height="14" rx="4" fill="#FFF6E4"/>
  <rect x="74" y="68" width="16" height="14" rx="4" fill="#FFF6E4"/>
  <path fill="url(#engine-gold)" d="M108.0,43.0 C115.6,51.3 116.6,59.1 108.0,69.0 C99.4,59.1 100.4,51.3 108.0,43.0Z"/>
</svg>
